/* XPM */
static char *_b4096a62f344779ce4439e2015ab7951dOlIGbNFfRRpzuY[] = {
/* columns rows colors chars-per-pixel */
"64 64 189 2 ",
"   c #010201",
".  c #000803",
"X  c #0C0A08",
"o  c #140F0B",
"O  c #021405",
"+  c #0C160D",
"@  c #1C1A0C",
"#  c #120C10",
"$  c #121116",
"%  c #121318",
"&  c #1B161B",
"*  c #052909",
"=  c #003A06",
"-  c #08300D",
";  c #0D2811",
":  c #172A1A",
">  c #18291A",
",  c #0E3513",
"<  c #073914",
"1  c #0B3C14",
"2  c #053712",
"3  c #113315",
"4  c #133518",
"5  c #163D1A",
"6  c #143818",
"7  c #22210F",
"8  c #242311",
"9  c #392D1F",
"0  c #1E1D22",
"q  c #1E2720",
"w  c #1E3320",
"e  c #242C26",
"r  c #2A252B",
"t  c #282B2A",
"y  c #3A2E20",
"u  c #2A362B",
"i  c #393C28",
"p  c #353C35",
"a  c #3A3C3A",
"s  c #363636",
"d  c #2F3A34",
"f  c #423B25",
"g  c #04440D",
"h  c #0C4C14",
"j  c #0E4414",
"k  c #14441C",
"l  c #114C1B",
"z  c #104817",
"x  c #0C5015",
"c  c #0A5C14",
"v  c #12541B",
"b  c #125B1C",
"n  c #16641F",
"m  c #174F20",
"M  c #1A5522",
"N  c #165C22",
"B  c #1B5C24",
"V  c #3C413C",
"C  c #1B6425",
"Z  c #1A6C24",
"A  c #1E692A",
"S  c #166721",
"D  c #1A7225",
"F  c #1D7829",
"G  c #1B7427",
"H  c #21692A",
"J  c #217D2D",
"K  c #24742E",
"L  c #297E34",
"P  c #277B31",
"I  c #464322",
"U  c #484524",
"Y  c #40423F",
"T  c #5F5438",
"R  c #5F5437",
"E  c #605439",
"W  c #6E6C3F",
"Q  c #453D43",
"!  c gray29",
"~  c #494548",
"^  c #504B4F",
"/  c #4F4D50",
"(  c #5B4E59",
")  c #5B555B",
"_  c #585557",
"`  c #4C514B",
"'  c #605B5F",
"]  c #6D6341",
"[  c #655D64",
"{  c #65646A",
"}  c #6E6B6D",
"|  c #696468",
" . c #706A6E",
".. c #786E77",
"X. c #746D74",
"o. c #7C767B",
"O. c #817D4F",
"+. c #807B7F",
"@. c #21852E",
"#. c #248331",
"$. c #288132",
"%. c #258C33",
"&. c #2B8B36",
"*. c #2C8C39",
"=. c #2A9437",
"-. c #2B9639",
";. c #2C9C3C",
":. c #279135",
">. c #31953D",
",. c #329B3F",
"<. c #2FA13F",
"1. c #31A33F",
"2. c #349E42",
"3. c #33A341",
"4. c #34AB44",
"5. c #39AD47",
"6. c #3AAD48",
"7. c #3BB44B",
"8. c #3DBB4E",
"9. c #38B147",
"0. c #3FBE50",
"q. c #40BC4E",
"w. c #40BC51",
"e. c #3FC252",
"r. c #40C34F",
"t. c #42C352",
"y. c #45CA55",
"u. c #48CB58",
"i. c #4AD35C",
"p. c #898651",
"a. c #9F9D64",
"s. c #A09B63",
"d. c #ACA765",
"f. c #AEA966",
"g. c #AFAA68",
"h. c #A5A065",
"j. c #B1AF6C",
"k. c #B6B16E",
"l. c #BCB371",
"z. c #B9B572",
"x. c #C1B875",
"c. c #C8C47B",
"v. c #827B81",
"b. c #897F87",
"n. c #8C858B",
"m. c #818181",
"M. c #948B93",
"N. c #939297",
"B. c #959598",
"V. c #9A939A",
"C. c #9B9C9B",
"Z. c #A49AA3",
"A. c #AB9DAA",
"S. c #A8A5A8",
"D. c #B6ABB4",
"F. c #BABABA",
"G. c #B7B3B7",
"H. c #E0DB88",
"J. c #EBE58F",
"K. c #F7F096",
"L. c #FBF397",
"P. c #FAF398",
"I. c #FFFD9E",
"U. c #FFFFA4",
"Y. c #FFFFAC",
"T. c #FFFFB2",
"R. c #C3BAC2",
"E. c #C9BFC8",
"W. c #C7C3C7",
"Q. c #CBCBCC",
"!. c #D1CBCF",
"~. c #CECFD1",
"^. c #CFD0D2",
"/. c #D2D3D5",
"(. c #D6D7D9",
"). c #DBDBDC",
"_. c #DAD5DA",
"`. c #D3C9D1",
"'. c #E4DEE3",
"]. c #DFE0E2",
"[. c #E3E3E4",
"{. c #EAEAEA",
"}. c #E9E6EB",
"|. c #F0EBEF",
" X c #EFEFF1",
".X c #F4F4F4",
"XX c #F9F9F7",
"oX c #FEFEFE",
"OX c #F8F6F9",
/* pixels */
"oXoXoXoXoXoXoXoXoXoXoXoXoXoXoXoXoXoXoXoXoXoXoXoXoXoXoXoXoXoXoXoXoXoXoXoXoXoXoXoXoXoXoXoXoXoXoXoXoXoXoXoXoXoXoXoXoXoXoXoXoXoXoXoX",
"oXoXoXoXoXoXoXoXoXoXoXoXoXoXoXoXoXoXoXoXoXoXoXoXoXoXoXoXoXoXoXoXoXoXoXoXoXoXoXoXoXoXoXoXoXoXoXoXoXoXoXoXoXoXoXoXoXoXoXoXoXoXoXoX",
"oXoXoXoXoXoXoXoXoXoXoXoXoXoXoXoXoXoXoXoXoXoXoXoXoXoXoXoXoXoXoXoXoXoXoXoXoXoXoXoXoXoXoXoXoXoXoXoXoXoXoXoXoXoXoXoXoXoXoXoXoXoXoXoX",
"oXoXoXoXoXoXoXoXoXoXoXoXoXoXoXoXoXoXoXoXoXoXoXoXoXoXoXoXoXoXoXoXoXoXoXoXoXoXoXoXoXoXoXoXoXoXoXoXoXoXoXoXoXoXoXoXoXoXoXoXoXoXoXoX",
"oXoXoXoXoXoXoXoXoXoXoXoXoXoXoXoXoXoXoXoXoXoXoXoXoXoXoXoXoXoXoXoXoXoXoXoXoXoXoXoXoXoXoXoXoXoXoXoXoXoXoXoXoXoXoXoXoXoXoXoXoXoXoXoX",
"oXoXoXoXoXoXoXoXoXoXoXoXoXoXoXoXoXoXoXoXoXoXoXoXoXoXoXoXoXoXoXoXoXoXoXoXoXoXoXoXoXoXoXoXoXoXoXoXoXoXoXoXoXoXoXoXoXoXoXoXoXoXoXoX",
"oXoXoXoXoXoXoXoXoXoXoXoXoXoXoXoXoXoXoXoXoXoXoXoXoXoXoXoXoXoXoXoXoXoXoXoXoXoXoXoXoXoXoXoXoXoXoXoXoXoXoXoXoXoXoXoXoXoXoXoXoXoXoXoX",
"oXoXoXoXoXoXoXoXoXoXXXXXoXXXXXoXXXXXoXXXXXoXoXXXoXXXXXoXoXXXXXoXXXoXXXXXoXXXXXoXXXXXoXXXXXoXoXXXoXXXXXoXXXoXoXoXoXoXoXoXoXoXoXoX",
"oXoXoXoXoXoXoXoXoXoXoXoXoXoXoXoXoXoXoXoXoXoXoXoXoXoXoXoXoXoXoXoXoXoXoXoXoXoXoXoXoXoXoXoXoXoXoXoXoXoXoXoXoXoXoXoXoXoXoXoXoXoXoXoX",
"oXoXoXoXoXoXoXoXoXG.{ { { { { { { { { { { { { { { { { { { { { { { { { { { { { { { { { { { { { { { { { { { { F.XXoXoXoXoXoXoXoXoX",
"oXoXoXoXoXoXoXoXB.  I I U I I I I I I I I I I I I I U I I I I I I I I I I I I I I I I I I I I I I I I I U f   B.oXoXoXoXoXoXoXoX",
"oXoXoXoXoXoXoXoX0 p.T.U.U.U.U.U.U.U.U.U.U.U.U.U.U.U.U.U.U.U.U.U.U.U.U.U.U.U.U.U.U.U.U.U.U.U.U.U.U.U.U.U.U.Y.p.0 oXoXoXoXoXoXoXoX",
"oXoXoXoXoXoXoXXX$ j.U.K.P.U.I.I.I.I.I.I.I.I.I.I.I.I.I.I.I.I.I.I.I.I.I.I.I.I.I.I.I.I.I.I.I.I.I.I.I.U.U.K.K.U.j.% XXoXoXoXoXoXoXoX",
"oXoXoXoXoXoXoXXX$ d.U.L.U.h.f 9 y y y y y y y y y y y 9 y y 9 y 9 y 9 9 y y y y y y 9 9 y 9 9 9 y f h.I.L.U.d.$ XXoXoXoXoXoXoXoX",
"oXoXoXoXoXoXoXXX$ f.U.U.]   l N N b N N N N N N N N N N N N N N N N N N b N N b N N N N b N N N N l   ] U.U.g.% XXoXoXoXoXoXoXoX",
"oXoXoXoXoXoXoXXX$ f.U.J.$ $.y.e.y.r.e.y.u.y.y.t.r.r.y.y.t.t.t.u.y.t.t.t.y.t.t.t.u.y.y.y.y.y.y.q.t.i.$.@ H.U.g.% XXoXoXoXoXoXoXoX",
"oXoXoXoXoXoXoXXX$ d.Y.l.. 7.7.7.6.7.7.3.:.=.=.4.7.7.5.4.q.6.8.%.3.7.6.0.4.8.7.7.<.<.;.-.;.;.9.7.6.7.9.. l.T.d.% XXoXoXoXoXoXoXoX",
"oXoXoXoXoXoXoXXX% d.Y.l.. 6.7.7.7.8.H e V p p > >.-.q q L y.M s e *.0.m > M 7.5 e u p d d u > P 0.7.6.. l.U.d.% XXoXoXoXoXoXoXoX",
"oXoXoXoXoXoXoXXX$ d.T.l.. 6.7.7.7.3.e |.oXXXoXD.k z D.'.> @.s oXZ.v %.~ oX! = } oXoXoXoXXXoX_.> 7.7.6.. l.Y.d.% XXoXoXoXoXoXoXoX",
"oXoXoXoXoXoXoXXX% d.Y.l.. 6.8.7.w.=.V oXR. .v.~ K v V.oXm.  C.oXo.S G ..oX} h p n.N.{.oXS.M.[ m 0.7.6.. l.Y.d.% XXoXoXoXoXoXoXoX",
"oXoXoXoXoXoXoXXX$ d.Y.l.. 5.8.7.8.=.a oXo.* D F t.%.a oX].t {.oXp 3.Z ..oX| G 2.b O Q.oXe g Z 7.7.7.6.. l.Y.d.% XXoXoXoXoXoXoXoX",
"oXoXoXoXoXoXoXXX$ d.Y.l.. 5.7.9.q.=.V oXv.G i.8.7.0., G.oXQ.oXW.3 u.S X.oX..S y.u.k E.oXV 4.y.7.7.8.5.. l.Y.d.% XXoXoXoXoXoXoXoX",
"oXoXoXoXoXoXoXXX$ d.Y.l.. 5.7.7.w.=.a XXo.x t.7.6.t.J ^ oXXXoX .C i.S X.oXo.n t.8.1 R.oXp =.7.7.7.7.6.. l.Y.d.% XXoXoXoXoXoXoXoX",
"oXoXoXoXoXoXoXXX$ d.Y.l.. 6.7.7.w.=.a oXC.q : *.8.7.8.3 R.oX{.e 3.t.Z } oXv.b t.q.6 F.oXa =.w.7.7.7.6.. l.U.d.% XXoXoXoXoXoXoXoX",
"oXoXoXoXoXoXoXXX% d.Y.l.. 6.7.7.0.=.V oXOXoXR., 0.6.t.l M.oX_.: 9.e.D { oXb.b e.0.1 G.oX~ %.0.7.7.7.6.. l.Y.d.% XXoXoXoXoXoXoXoX",
"oXoXoXoXoXoXoXXX$ d.Y.l.. 5.7.7.0.=.V oXW.n.( N 0.7.9.w '.oXoX[ Z i.G [ oXn.v e.t.j D.oX~ %.8.7.7.7.6.. l.Y.d.% XXoXoXoXoXoXoXoX",
"oXoXoXoXoXoXoXXX$ d.Y.l.. 6.7.7.0.=.a oXa.O J 7.6.t.F ) oXXXoX!.: t.F ) oXM.v t.t.j S.oX~ %.e.7.7.8.6.. l.U.d.% XXoXoXoXoXoXoXoX",
"oXoXoXoXoXoXoXXX$ d.T.l.. 5.8.7.0.-.a oXv.n i.8.0.0.1 D.XXN.~.oX_ F %._ oXN.l t.w.h A.oX! @.8.7.7.7.6.. l.Y.d.% XXoXoXoXoXoXoXoX",
"oXoXoXoXoXoXoXXX$ d.Y.l.. 6.7.7.8.-.p oXn.O e - H 3.u OXoX& } oXR.k @./ oXV.v e.w.l Z.oX/ @.w.7.7.8.5.. l.Y.d.% XXoXoXoXoXoXoXoX",
"oXoXoXoXoXoXoXXX$ d.Y.l.. 6.7.7.8.;.p oXXX{.|.}.! = ..oXS.- u '.oX` c _ oXV.h t.t.l N.oX/ @.w.7.7.7.5.. l.Y.d.% XXoXoXoXoXoXoXoX",
"oXoXoXoXoXoXoXXX$ d.Y.l.. 6.7.7.7.7.3 A.)././.`.V h _ }.s -.C ( ).s @.> R.( A 0.w.F ~ W.e ;.8.7.7.7.5.. l.U.g.% XXoXoXoXoXoXoXoX",
"oXoXoXoXoXoXoXXX$ d.Y.l.. 6.7.7.7.8.>., 4 4 4 ; K e.v ; H w.0.C 3 K y.&.; B 8.7.7.8.H ; $.8.7.7.7.7.6.. l.Y.d.% XXoXoXoXoXoXoXoX",
"oXoXoXoXoXoXoXXX$ d.T.l.. 6.8.7.7.7.7.t.8.0.w.y.0.7.t.7.0.7.=.%.&.%.2.0.t.w.7.7.7.7.w.w.0.7.7.7.7.8.6.. l.Y.d.% XXoXoXoXoXoXoXoX",
"oXoXoXoXoXoXoXXX$ d.Y.l.. 6.7.7.7.7.7.7.7.6.7.7.9.7.7.7.8.L # Q a s X >.7.6.7.7.7.7.7.7.7.7.7.7.7.7.6.. l.Y.d.% XXoXoXoXoXoXoXoX",
"oXoXoXoXoXoXoXXX$ d.Y.l.. 6.7.7.7.7.7.7.7.7.7.7.7.7.7.7.u.Z ) oXOXoXQ @.y.8.7.7.6.7.7.7.7.7.7.7.7.7.6.. l.U.d.% XXoXoXoXoXoXoXoX",
"oXoXoXoXoXoXoXXX$ d.Y.l.. 6.7.7.7.7.7.7.7.7.7.7.7.7.7.-.2.= [ oXOXoX^ = -.2.7.7.q.7.7.7.7.7.7.7.7.7.6.. l.Y.d.% XXoXoXoXoXoXoXoX",
"oXoXoXoXoXoXoXXX$ d.Y.l.. 6.7.7.7.7.7.7.7.7.7.7.7.7.7.; & [ C.oXXXoXV.) r O 7.7.7.7.7.7.7.7.7.7.7.8.5.. l.U.d.% XXoXoXoXoXoXoXoX",
"oXoXoXoXoXoXoXXX$ d.Y.l.. 6.7.7.7.7.7.7.7.7.7.7.7.7.8.3.+ S.oXXXoXoXoX).& &.w.7.7.7.7.7.7.7.7.7.7.7.6.. l.Y.d.% XXoXoXoXoXoXoXoX",
"oXoXoXoXoXoXoXXX$ d.Y.l.. 6.7.7.7.7.7.7.7.7.7.7.7.7.7.0.-.  S.oXXXoX].& C t.7.7.7.7.7.7.7.7.7.7.7.8.5.. l.Y.d.% XXoXoXoXoXoXoXoX",
"oXoXoXoXoXoXoXXX$ d.T.l.. 6.0.7.7.7.7.7.7.8.7.7.7.7.7.4.e.*.  S.oX{.r m t.7.7.7.7.7.w.7.7.7.7.7.7.7.6.. l.Y.d.% XXoXoXoXoXoXoXoX",
"oXoXoXoXoXoXoXXX$ d.U.z.. 6.7.7.7.7.7.7.7.7.7.7.7.7.7.7.6.w.*.  S.Q < t.7.7.7.7.7.7.7.7.7.7.7.7.7.7.6.. l.Y.d.% XXoXoXoXoXoXoXoX",
"oXoXoXoXoXoXoXXX$ d.Y.l.. 7.7.6.7.7.7.6.7.6.7.7.7.6.7.7.7.6.0.*.  5 8.9.6.7.7.6.7.7.7.7.7.6.6.7.7.7.6.. l.Y.d.% XXoXoXoXoXoXoXoX",
"oXoXoXoXoXoXoXXX$ f.U.J.o A y.t.t.t.t.t.t.t.t.t.t.t.t.w.t.t.t.u.q.y.y.r.t.t.t.w.t.t.w.t.t.t.t.w.t.y.A o J.U.g.% XXoXoXoXoXoXoXoX",
"oXoXoXoXoXoXoXXX$ g.U.U.s.  * < 1 < < < < < < < < < 1 2 < < < < 1 1 2 2 < < < < < < < < < < 1 2 < *   a.I.U.g.% XXoXoXoXoXoXoXoX",
"oXoXoXoXoXoXoXXX% f.U.K.U.c.E R T T T E E E T T R R T R T T T R T R R R E E R R E E R T T T R R T ] c.U.P.U.d.% XXoXoXoXoXoXoXoX",
"oXoXoXoXoXoXoXXX% k.U.P.L.U.U.U.U.U.U.U.U.U.U.U.U.U.U.U.U.U.U.U.U.U.U.U.U.U.U.U.U.U.U.U.U.U.U.U.U.U.I.L.P.U.j.% XXoXoXoXoXoXoXoX",
"oXoXoXoXoXoXoXoXr ] U.I.I.I.U.I.U.I.I.I.U.I.U.U.U.I.I.I.U.I.I.U.U.I.I.I.U.U.I.I.U.U.I.U.U.I.I.U.I.I.I.I.I.U.W t oXoXoXoXoXoXoXoX",
"oXoXoXoXoXoXoXoXG.. @ 8 7 7 7 7 7 @ 7 7 @ 7 7 @ 7 7 7 7 7 @ 7 8 @ 7 7 7 7 @ 7 7 7 7 @ 7 @ 7 7 7 7 7 7 7 8 @   G.oXoXoXoXoXoXoXoX",
"oXoXoXoXoXoXoXoXoX).N.N.N.N.N.N.N.N.N.N.N.N.N.N.N.N.N.N.N.N.N.N.N.N.N.N.N.N.N.N.N.N.N.N.N.N.N.N.M.N.N.N.N.B.).oXoXoXoXoXoXoXoXoX",
"oXoXoXoXoXoXoXoXoXoXoXoXoXoXoXoXoXoXoXoXoXoXoXoXoXoXoXoXoXoXoXoXoXoXoXoXoXoXoXoXoXoXoXoXoXoXoXoXoXoXoXoXoXoXoXoXoXoXoXoXoXoXoXoX",
"oXoXoXoXoXoXoXoXoXoXXXoXoXXXXXoXXXXXXXoXXXoXXXXXXXXXXXoXoXXXXXXXXXoXXXXXXXoXXXoXXXoXXXXXXXoXoXXXoXXXXXoXXXoXoXoXoXoXoXoXoXoXoXoX",
"oXoXoXoXoXoXoXoXoXoXoXoXoXoXoXoXoXoXoXoXoXoXoXoXoXoXoXoXoXoXoXoXoXoXoXoXoXoXoXoXoXoXoXoXoXoXoXoXoXoXoXoXoXoXoXoXoXoXoXoXoXoXoXoX",
"oXoXoXoXoXoXoXoXoXoXoXoXoXoXoXoXoXoXoXoXoXoXoXoXoXoXoXoXoXoXoXoXoXoXoXoXoXoXoXoXoXoXoXoXoXoXoXoXoXoXoXoXoXoXoXoXoXoXoXoXoXoXoXoX",
"oXoXoXoXoXoXoXoXoXoXoXoXoXoXOX.X.X X{.{.{.{.{.{.{.{.{.}.{.{.{.{.}.{.[.{.{.{.{.[.}.{.{.{. X{..X{..XOXoXoXoXoXoXoXoXoXoXoXoXoXoXoX",
"oXoXoXoXoXoXoXoXoXoXXX{.)./././.^.~.~.~.~.~.~.~.~.~.~.~.Q.^.^.^.^.^.^.^.~.~.~.^.~.^.^.^.^.~.~.~.^.^.(.).]. XoXoXoXoXoXoXoXoXoXoX",
"oXoXoXoXoXoXoXoXoXoX).~.^./././././././././././././././././.^./././././././././././././././././././.^.^.^.Q.[.oXoXoXoXoXoXoXoXoX",
"oXoXoXoXoXoXoXoXoXoX{./.^.^.^.^.~.^././.^.^.^.^././././././././.^././.^./.^././././.^.^./.^.^.^.~.~.^.^.^.(..XoXoXoXoXoXoXoXoXoX",
"oXoXoXoXoXoXoXoXoXoXoXXX{.{.[.).).(.(.(.(./.(.(./.(./././././.(./././.(.(./.(././././.(.(.(.(.).).[.[.{..XoXoXoXoXoXoXoXoXoXoXoX",
"oXoXoXoXoXoXoXoXoXoXoXoXoXoXoXoXoXoXoXoXoXXXXXXXXXXXXXXXXXXXXXXXXXXXoXXXXXXXXXXXXXoXXXoXoXoXoXoXoXoXoXoXoXoXoXoXoXoXoXoXoXoXoXoX",
"oXoXoXoXoXoXoXoXoXoXoXoXoXoXoXoXoXoXoXoXoXoXoXoXoXoXoXoXoXoXoXoXoXoXoXoXoXoXoXoXoXoXoXoXoXoXoXoXoXoXoXoXoXoXoXoXoXoXoXoXoXoXoXoX",
"oXoXoXoXoXoXoXoXoXoXoXoXoXoXoXoXoXoXoXoXoXoXoXoXoXoXoXoXoXoXoXoXoXoXoXoXoXoXoXoXoXoXoXoXoXoXoXoXoXoXoXoXoXoXoXoXoXoXoXoXoXoXoXoX",
"oXoXoXoXoXoXoXoXoXoXoXoXoXoXoXoXoXoXoXoXoXoXoXoXoXoXoXoXoXoXoXoXoXoXoXoXoXoXoXoXoXoXoXoXoXoXoXoXoXoXoXoXoXoXoXoXoXoXoXoXoXoXoXoX",
"oXoXoXoXoXoXoXoXoXoXoXoXoXoXoXoXoXoXoXoXoXoXoXoXoXoXoXoXoXoXoXoXoXoXoXoXoXoXoXoXoXoXoXoXoXoXoXoXoXoXoXoXoXoXoXoXoXoXoXoXoXoXoXoX",
"oXoXoXoXoXoXoXoXoXoXoXoXoXoXoXoXoXoXoXoXoXoXoXoXoXoXoXoXoXoXoXoXoXoXoXoXoXoXoXoXoXoXoXoXoXoXoXoXoXoXoXoXoXoXoXoXoXoXoXoXoXoXoXoX"
};
